HIERARCHY
ROOT SpineBase
{
  OFFSET 0.000000 0.000000 0.000000
  CHANNELS 6 Xposition Yposition Zposition Zrotation Xrotation Yrotation
  JOINT SpineMid
  {
    OFFSET 0.000000 31.128660 0.000000
    CHANNELS 3 Zrotation Xrotation Yrotation
    JOINT SpineShoulder
    {
      OFFSET -0.323489 23.150357 -0.684814
      CHANNELS 3 Zrotation Xrotation Yrotation
      JOINT Neck
      {
        OFFSET -0.226331 7.687250 -0.511477
        CHANNELS 3 Zrotation Xrotation Yrotation
        JOINT Head
        {
          OFFSET -4.338488 7.431190 7.204686
          CHANNELS 3 Zrotation Xrotation Yrotation
          End Site
          {
            OFFSET 0 0 0
          }
        }
      }
      JOINT ShoulderLeft
      {
        OFFSET -5.437064 -6.132085 5.415187
        CHANNELS 3 Zrotation Xrotation Yrotation
        JOINT ElbowLeft
        {
          OFFSET -1.994794 -18.726993 -15.643931
          CHANNELS 3 Zrotation Xrotation Yrotation
          JOINT WristLeft
          {
            OFFSET -3.697843 -23.087568 -2.728790
            CHANNELS 3 Zrotation Xrotation Yrotation
            JOINT HandLeft
            {
              OFFSET 1.171162 -13.995482 -0.137725
              CHANNELS 3 Zrotation Xrotation Yrotation
              JOINT HandTipLeft
              {
                OFFSET 0.426628 -3.843801 1.718935
                CHANNELS 3 Zrotation Xrotation Yrotation
                End Site
                {
                  OFFSET 0 0 0
                }
              }
              JOINT ThumbLeft
              {
                OFFSET -0.332227 1.471163 -3.875454
                CHANNELS 3 Zrotation Xrotation Yrotation
                End Site
                {
                  OFFSET 0 0 0
                }
              }
            }
          }
        }
      }
      JOINT ShoulderRight
      {
        OFFSET -0.176630 -2.658591 -14.016337
        CHANNELS 3 Zrotation Xrotation Yrotation
        JOINT ElbowRight
        {
          OFFSET -2.706232 -22.511765 -7.916497
          CHANNELS 3 Zrotation Xrotation Yrotation
          JOINT WristRight
          {
            OFFSET -5.249680 -22.349449 3.848080
            CHANNELS 3 Zrotation Xrotation Yrotation
            JOINT HandRight
            {
              OFFSET -0.535765 -7.231238 2.499877
              CHANNELS 3 Zrotation Xrotation Yrotation
              JOINT HandTipRight
              {
                OFFSET -1.732948 -6.022252 0.566314
                CHANNELS 3 Zrotation Xrotation Yrotation
                End Site
                {
                  OFFSET 0 0 0
                }
              }
              JOINT ThumbRight
              {
                OFFSET -4.281715 1.106622 -1.662184
                CHANNELS 3 Zrotation Xrotation Yrotation
                End Site
                {
                  OFFSET 0 0 0
                }
              }
            }
          }
        }
      }
    }
  }
  JOINT HipLeft
  {
    OFFSET -2.985189 0.945440 1.761303
    CHANNELS 3 Zrotation Xrotation Yrotation
    JOINT KneeLeft
    {
      OFFSET -5.967971 -25.516773 -7.375556
      CHANNELS 3 Zrotation Xrotation Yrotation
      JOINT AnkleLeft
      {
        OFFSET 13.681625 -34.633961 3.746286
        CHANNELS 3 Zrotation Xrotation Yrotation
        JOINT FootLeft
        {
          OFFSET -8.768411 -3.614133 -3.850299
          CHANNELS 3 Zrotation Xrotation Yrotation
          End Site
          {
            OFFSET 0 0 0
          }
        }
      }
    }
  }
  JOINT HipRight
  {
    OFFSET 0.177160 1.177591 -7.930058
    CHANNELS 3 Zrotation Xrotation Yrotation
    JOINT KneeRight
    {
      OFFSET -0.436492 -26.105812 -3.247663
      CHANNELS 3 Zrotation Xrotation Yrotation
      JOINT AnkleRight
      {
        OFFSET 9.274244 -31.498065 -1.962609
        CHANNELS 3 Zrotation Xrotation Yrotation
        JOINT FootRight
        {
          OFFSET -1.333217 -7.989419 2.605014
          CHANNELS 3 Zrotation Xrotation Yrotation
          End Site
          {
            OFFSET 0 0 0
          }
        }
      }
    }
  }
}
MOTION
Frames: 10
Frame Time: 0.033333
149.907132 66.406134 329.295630 0.325989 0.361041 73.796740 -0.437664 0.212294 -73.796956 -0.000000 0.000000 0.000000 2.098552 -2.209624 -3.310108 0.000000 0.000000 0.000000 3.000357 22.239582 -4.729509 0.851941 -27.033634 5.362893 -1.323042 0.329395 -0.900930 -27.752633 25.538059 -2.398154 0.000000 0.000000 0.000000 0.000000 0.000000 0.000000 3.361252 0.958642 -1.326449 -2.552520 -1.925133 1.633684 -7.845529 6.559667 -2.783467 8.384408 -13.120091 5.726493 0.000000 0.000000 0.000000 0.000000 0.000000 0.000000 -12.568236 -9.826922 -73.211267 -9.090928 20.199972 2.022672 1.565681 -5.548572 -1.163802 0.000000 0.000000 0.000000 0.166137 0.802276 -73.765255 -0.687479 -2.536260 -0.527606 -19.976962 16.757250 -5.570783 0.000000 0.000000 0.000000
149.811213 66.547600 329.256436 0.248063 0.203464 74.504624 -0.262341 0.184689 -74.504642 -0.000000 0.000000 0.000000 2.117219 -2.056606 -3.236282 0.000000 0.000000 0.000000 7.509556 24.115433 -8.941652 -4.842064 -28.869910 6.864992 -7.995146 4.720805 0.048860 -16.596818 21.825793 -4.961784 0.000000 0.000000 0.000000 0.000000 0.000000 0.000000 3.614288 1.218533 -1.456361 -2.612721 -2.263919 1.800510 -8.768734 6.925769 -3.034870 9.699750 -13.296783 6.200228 0.000000 0.000000 0.000000 0.000000 0.000000 0.000000 -11.006779 -9.334984 -74.150873 -8.696584 16.313979 1.201338 1.216641 -2.545863 -1.892072 0.000000 0.000000 0.000000 0.857417 0.393877 -74.541367 -1.459866 -3.205911 -0.548860 -18.543227 15.243276 -5.214132 0.000000 0.000000 0.000000
149.716375 66.593868 329.201368 0.199956 0.079307 75.896390 -0.125641 0.174604 -75.896337 -0.000000 0.000000 0.000000 1.977026 -1.986044 -3.062184 0.000000 0.000000 0.000000 14.640377 25.531904 -15.553751 -13.395676 -31.089600 8.625921 -12.708037 8.819805 1.400555 -5.644210 16.630056 -6.292943 0.000000 0.000000 0.000000 0.000000 0.000000 0.000000 3.985475 1.403226 -1.619313 -2.876449 -2.584459 1.994387 -8.377935 6.318744 -2.913425 8.337165 -13.762469 5.992433 0.000000 0.000000 0.000000 0.000000 0.000000 0.000000 -11.328888 -8.908811 -75.424528 -7.901972 16.205570 0.864996 2.869635 -3.312433 -1.542702 0.000000 0.000000 0.000000 1.400191 -0.157288 -76.006106 -2.164802 -3.676541 -0.544975 -14.908902 12.060603 -4.381349 0.000000 0.000000 0.000000
149.658222 66.762592 329.388324 0.195472 -0.174456 78.188422 0.130750 0.227043 -78.188384 -0.000000 0.000000 0.000000 1.831515 -2.232088 -3.072089 0.000000 0.000000 0.000000 31.049130 23.511183 -30.506503 -29.665508 -38.855415 13.285717 -13.105419 9.796792 1.548083 2.616461 12.395601 -5.990692 0.000000 0.000000 0.000000 0.000000 0.000000 0.000000 4.336786 1.473109 -1.758599 -3.254318 -2.640986 2.105747 -6.697394 4.381775 -2.375998 5.242749 -11.903663 4.741639 0.000000 0.000000 0.000000 0.000000 0.000000 0.000000 -10.740265 -7.980169 -77.696491 -7.266024 16.367593 1.198768 10.884444 -8.775593 1.146433 0.000000 0.000000 0.000000 2.113344 -0.787060 -78.381333 -2.906222 -4.031440 -0.477435 -8.831118 7.563958 -2.800904 0.000000 0.000000 0.000000
149.610327 67.071157 329.503222 0.198221 -0.275524 81.108356 0.241574 0.238425 -81.108382 -0.000000 0.000000 0.000000 1.744788 -2.636360 -3.233565 0.000000 0.000000 0.000000 45.888541 21.521009 -44.386850 -45.295271 -47.010253 12.889570 -13.644321 7.993983 1.331215 8.948586 14.179797 -4.101860 0.000000 0.000000 0.000000 0.000000 0.000000 0.000000 4.721302 1.672756 -1.930775 -3.670913 -2.774005 2.223415 -5.875063 3.962269 -2.110573 3.122890 -12.432781 4.325368 0.000000 0.000000 0.000000 0.000000 0.000000 0.000000 -10.492574 -6.950558 -80.542882 -6.576046 15.020710 0.797276 10.262847 -8.220401 2.492922 0.000000 0.000000 0.000000 2.496535 -1.608648 -81.383810 -3.684035 -4.376368 -0.438434 -0.804542 2.444858 -0.068722 0.000000 0.000000 0.000000
149.613772 67.435825 329.748928 0.221824 -0.406471 84.080849 0.381429 0.262559 -84.080936 0.675185 -0.622335 0.030252 1.097683 -2.529287 -3.616135 0.000000 0.000000 0.000000 52.862636 21.046266 -52.106688 -56.140111 -49.314109 8.326989 -12.695984 4.583817 0.623773 11.666088 23.837174 -0.396888 0.000000 0.000000 0.000000 0.000000 0.000000 0.000000 4.287355 2.470261 -2.123532 -4.119045 -2.774283 2.224460 -4.617858 2.817915 -1.682128 0.998723 -11.157762 3.539674 0.000000 0.000000 0.000000 0.000000 0.000000 0.000000 -10.402990 -5.746204 -83.314168 -5.780787 16.537225 1.363998 24.197521 -16.649793 11.650257 0.000000 0.000000 0.000000 2.982338 -2.343168 -84.427604 -4.339884 -4.844695 -0.404003 -5.039999 4.983774 -1.491700 0.000000 0.000000 0.000000
149.654585 67.797020 330.059205 0.265865 -0.495032 86.772554 0.479280 0.293314 -86.772632 0.730329 -0.670774 0.033100 1.148756 -3.171668 -4.143989 0.000000 0.000000 0.000000 53.532271 24.983822 -53.427805 -57.675842 -46.116781 3.857435 -10.683379 -0.467918 -0.239176 11.242751 37.164846 4.567444 0.000000 0.000000 0.000000 0.000000 0.000000 0.000000 4.371161 2.710859 -2.212683 -5.022154 -2.224278 1.939922 -3.022292 1.366011 -1.112616 -1.461338 -9.493339 2.624655 0.000000 0.000000 0.000000 0.000000 0.000000 0.000000 -11.592202 -4.544158 -85.477068 -4.976436 21.148801 2.351095 45.605668 -24.686366 27.275432 0.000000 0.000000 0.000000 3.275487 -2.932254 -87.171260 -4.658561 -5.085657 -0.342761 -4.351950 2.123806 -0.939794 0.000000 0.000000 0.000000
149.705861 68.089548 330.317511 0.325599 -0.555883 88.809271 0.548997 0.337080 -88.809306 0.777409 -0.710354 0.035609 1.239437 -3.746212 -4.657939 0.000000 0.000000 0.000000 45.922673 33.452623 -47.104540 -47.935718 -38.071773 1.739536 -6.612270 -7.050442 -0.492408 5.092282 51.014876 10.044765 0.000000 0.000000 0.000000 0.000000 0.000000 0.000000 4.397702 2.839836 -2.259993 -5.090660 -2.319760 1.970438 -2.240337 1.122855 -0.837443 -3.767272 -9.032128 2.007815 0.000000 0.000000 0.000000 0.000000 0.000000 0.000000 -13.833273 -3.228767 -86.625154 -3.922366 26.475732 2.833644 57.985703 -27.284796 38.942448 0.000000 0.000000 0.000000 3.449497 -3.295794 -89.240020 -4.649251 -5.204772 -0.286047 -4.478641 2.501024 -0.953864 0.000000 0.000000 0.000000
149.806275 68.274320 330.577946 0.363361 -0.556884 89.699988 0.554974 0.366271 -89.699996 0.805368 -0.682063 0.038275 1.387402 -4.519287 -5.292206 0.000000 0.000000 0.000000 26.842464 40.403293 -29.437542 -30.078517 -25.595188 0.691471 1.625640 -14.583205 1.593813 -12.580827 65.699503 19.137895 0.000000 0.000000 0.000000 0.000000 0.000000 0.000000 4.186780 2.564075 -2.151025 -4.920542 -2.057715 1.892400 -2.004298 0.834940 -0.741120 -5.819560 -7.610163 1.361241 0.000000 0.000000 0.000000 0.000000 0.000000 0.000000 -14.268806 -3.341559 -87.548345 -4.556561 27.602800 3.288633 58.444571 -27.677398 41.166640 0.000000 0.000000 0.000000 3.547805 -3.316553 -90.131728 -4.491705 -5.254449 -0.258543 -5.280904 3.410318 -1.275039 0.000000 0.000000 0.000000
149.827276 68.347163 330.697178 0.395114 -0.533137 90.421078 0.536026 0.391185 -90.421069 0.817727 -0.637765 0.040159 1.493246 -4.775403 -5.537432 0.000000 0.000000 0.000000 4.282336 38.296643 -7.976759 -10.599535 -12.211090 -1.673499 10.308474 -20.739861 6.049775 -36.321281 75.585997 33.830115 0.000000 0.000000 0.000000 0.000000 0.000000 0.000000 4.304441 2.895227 -2.258413 -5.033251 -2.445365 1.961820 -2.634584 1.402086 -0.985058 -5.102241 -8.422466 1.623689 0.000000 0.000000 0.000000 0.000000 0.000000 0.000000 -15.397873 -3.223050 -88.037204 -4.957280 28.595844 3.176691 47.336374 -28.059229 37.155335 0.000000 0.000000 0.000000 3.582124 -3.478041 -90.867873 -4.549938 -5.303755 -0.229939 -5.703791 3.695924 -1.419548 0.000000 0.000000 0.000000
